<svg width="26" height="20" viewBox="0 0 26 20" fill="none" xmlns="http://www.w3.org/2000/svg">
<path d="M18.8681 9.56935H20.1319V7.60148L21.8381 8.57648L22.4702 7.49315L20.764 6.5L22.4702 5.50685L21.8381 4.42352L20.1319 5.39852V3.43065H18.8681V5.39852L17.1619 4.42352L16.5298 5.50685L18.236 6.5L16.5298 7.49315L17.1619 8.57648L18.8681 7.60148V9.56935ZM1.80565 19.5C1.31815 19.5 0.895285 19.321 0.537063 18.9629C0.179021 18.6047 0 18.1819 0 17.6944V1.80565C0 1.31815 0.179021 0.895285 0.537063 0.537063C0.895285 0.179021 1.31815 0 1.80565 0H24.1944C24.6819 0 25.1047 0.179021 25.4629 0.537063C25.821 0.895285 26 1.31815 26 1.80565V17.6944C26 18.1819 25.821 18.6047 25.4629 18.9629C25.1047 19.321 24.6819 19.5 24.1944 19.5H1.80565ZM16.4125 17.6944H24.1944V1.80565H1.80565V17.6944H1.96815C2.75049 16.4124 3.77659 15.4028 5.04644 14.6656C6.31647 13.9284 7.69771 13.5598 9.19019 13.5598C10.6828 13.5598 12.0641 13.9284 13.3339 14.6656C14.604 15.4028 15.6302 16.4124 16.4125 17.6944ZM9.19019 11.9167C10.093 11.9167 10.8603 11.6007 11.4923 10.9688C12.1242 10.3368 12.4402 9.56944 12.4402 8.66667C12.4402 7.76389 12.1242 6.99653 11.4923 6.36458C10.8603 5.73264 10.093 5.41667 9.19019 5.41667C8.28741 5.41667 7.52005 5.73264 6.8881 6.36458C6.25616 6.99653 5.94019 7.76389 5.94019 8.66667C5.94019 9.56944 6.25616 10.3368 6.8881 10.9688C7.52005 11.6007 8.28741 11.9167 9.19019 11.9167ZM4.225 17.6944H14.1556C13.5224 16.9568 12.7728 16.3842 11.9066 15.9767C11.0407 15.569 10.1352 15.3652 9.19019 15.3652C8.24534 15.3652 7.34256 15.5698 6.48185 15.9792C5.62133 16.3885 4.86904 16.9602 4.225 17.6944ZM9.19019 10.111C8.78105 10.111 8.43799 9.97262 8.16102 9.69583C7.88423 9.41904 7.74583 9.07599 7.74583 8.66667C7.74583 8.25735 7.88423 7.91429 8.16102 7.6375C8.43799 7.36071 8.78105 7.22231 9.19019 7.22231C9.59951 7.22231 9.94256 7.36071 10.2194 7.6375C10.4963 7.91429 10.6348 8.25735 10.6348 8.66667C10.6348 9.07599 10.4963 9.41904 10.2194 9.69583C9.94256 9.97262 9.59951 10.111 9.19019 10.111Z" fill="#FF8854"/>
</svg>
