<svg width="30" height="30" viewBox="0 0 30 30" fill="none" xmlns="http://www.w3.org/2000/svg">
<path d="M10.5312 19.5938H19.9688C20.9479 19.5938 21.7917 19.2865 22.5 18.6719C23.2083 18.0573 23.5625 17.2812 23.5625 16.3438C23.5625 15.4062 23.2083 14.6354 22.5 14.0312C21.7917 13.4271 20.9479 13.125 19.9688 13.125C19.8646 11.8333 19.375 10.724 18.5 9.79688C17.625 8.86979 16.5417 8.40625 15.25 8.40625C14.1667 8.40625 13.1823 8.70312 12.2969 9.29688C11.4115 9.89062 10.8229 10.7083 10.5312 11.75C9.40625 11.75 8.44792 12.1302 7.65625 12.8906C6.86458 13.651 6.46875 14.5833 6.46875 15.6875C6.46875 16.7917 6.86458 17.7188 7.65625 18.4688C8.44792 19.2188 9.40625 19.5938 10.5312 19.5938ZM10.5312 17.7188C9.92708 17.7188 9.41146 17.526 8.98438 17.1406C8.55729 16.7552 8.34375 16.2708 8.34375 15.6875C8.34375 15.1042 8.55729 14.6146 8.98438 14.2188C9.41146 13.8229 9.92708 13.625 10.5312 13.625H12.1562V13.125C12.1562 12.3125 12.4635 11.6354 13.0781 11.0938C13.6927 10.5521 14.4167 10.2812 15.25 10.2812C16.0417 10.2812 16.7135 10.5573 17.2656 11.1094C17.8177 11.6615 18.0938 12.3333 18.0938 13.125V15H19.9688C20.4062 15 20.8021 15.1198 21.1562 15.3594C21.5104 15.599 21.6875 15.9271 21.6875 16.3438C21.6875 16.7604 21.5156 17.0938 21.1719 17.3438C20.8281 17.5938 20.4271 17.7188 19.9688 17.7188H10.5312ZM15 27.5C13.2917 27.5 11.6771 27.1719 10.1562 26.5156C8.63542 25.8594 7.30729 24.9635 6.17188 23.8281C5.03646 22.6927 4.14062 21.3646 3.48438 19.8438C2.82812 18.3229 2.5 16.7083 2.5 15C2.5 13.2708 2.82812 11.6458 3.48438 10.125C4.14062 8.60417 5.03646 7.28125 6.17188 6.15625C7.30729 5.03125 8.63542 4.14062 10.1562 3.48438C11.6771 2.82812 13.2917 2.5 15 2.5C16.7292 2.5 18.3542 2.82812 19.875 3.48438C21.3958 4.14062 22.7188 5.03125 23.8438 6.15625C24.9688 7.28125 25.8594 8.60417 26.5156 10.125C27.1719 11.6458 27.5 13.2708 27.5 15C27.5 16.7083 27.1719 18.3229 26.5156 19.8438C25.8594 21.3646 24.9688 22.6927 23.8438 23.8281C22.7188 24.9635 21.3958 25.8594 19.875 26.5156C18.3542 27.1719 16.7292 27.5 15 27.5ZM15 25.625C17.9583 25.625 20.4688 24.5885 22.5312 22.5156C24.5938 20.4427 25.625 17.9375 25.625 15C25.625 12.0417 24.5938 9.53125 22.5312 7.46875C20.4688 5.40625 17.9583 4.375 15 4.375C12.0625 4.375 9.55729 5.40625 7.48438 7.46875C5.41146 9.53125 4.375 12.0417 4.375 15C4.375 17.9375 5.41146 20.4427 7.48438 22.5156C9.55729 24.5885 12.0625 25.625 15 25.625Z" fill="#FF8854"/>
</svg>
