<svg width="23" height="27" viewBox="0 0 23 27" fill="none" xmlns="http://www.w3.org/2000/svg">
<path d="M11.25 26.875C9.66667 25.4444 7.90969 24.3472 5.97906 23.5834C4.04865 22.8195 2.05562 22.4375 0 22.4375V8.91656C2.00688 8.91656 3.97563 9.34198 5.90625 10.1928C7.83687 11.0434 9.61812 12.243 11.25 13.7916C12.8819 12.243 14.6631 11.0434 16.5938 10.1928C18.5244 9.34198 20.4931 8.91656 22.5 8.91656V22.4375C20.4375 22.4375 18.4427 22.8195 16.5156 23.5834C14.5885 24.3472 12.8333 25.4444 11.25 26.875ZM11.25 24.1875C12.6735 23.1527 14.1561 22.3264 15.6978 21.7084C17.2395 21.0903 18.8124 20.6945 20.4166 20.5209V11.1875C18.9653 11.4306 17.4705 11.9914 15.9322 12.8697C14.3941 13.7482 12.8333 14.9514 11.25 16.4791C9.56938 14.8957 7.98427 13.6753 6.49469 12.8178C5.0051 11.9601 3.53469 11.4167 2.08344 11.1875V20.5209C3.6876 20.6945 5.26052 21.0903 6.80219 21.7084C8.34385 22.3264 9.82646 23.1527 11.25 24.1875ZM11.3125 9.75C9.95146 9.75 8.79865 9.27781 7.85406 8.33344C6.90969 7.38885 6.4375 6.23604 6.4375 4.875C6.4375 3.51396 6.90969 2.36115 7.85406 1.41656C8.79865 0.472188 9.95146 0 11.3125 0C12.6735 0 13.8264 0.472188 14.7709 1.41656C15.7153 2.36115 16.1875 3.51396 16.1875 4.875C16.1875 6.23604 15.7153 7.38885 14.7709 8.33344C13.8264 9.27781 12.6735 9.75 11.3125 9.75ZM11.3159 7.66656C12.0845 7.66656 12.7414 7.39292 13.2866 6.84563C13.8316 6.29833 14.1041 5.64031 14.1041 4.87156C14.1041 4.10302 13.8304 3.44615 13.2831 2.90094C12.7358 2.35594 12.0778 2.08344 11.3091 2.08344C10.5405 2.08344 9.88365 2.35708 9.33844 2.90438C8.79344 3.45167 8.52094 4.10969 8.52094 4.87844C8.52094 5.64698 8.79458 6.30385 9.34188 6.84906C9.88917 7.39406 10.5472 7.66656 11.3159 7.66656Z" fill="#FF8854"/>
</svg>
