<svg width="30" height="30" viewBox="0 0 30 30" fill="none" xmlns="http://www.w3.org/2000/svg">
<path d="M4.58344 26.25C4.02094 26.25 3.53302 26.0434 3.11969 25.6303C2.70656 25.217 2.5 24.7291 2.5 24.1666V5.83344C2.5 5.27094 2.70656 4.78302 3.11969 4.36969C3.53302 3.95656 4.02094 3.75 4.58344 3.75H11.6666C12.2291 3.75 12.717 3.95656 13.1303 4.36969C13.5434 4.78302 13.75 5.27094 13.75 5.83344V24.1666C13.75 24.7291 13.5434 25.217 13.1303 25.6303C12.717 26.0434 12.2291 26.25 11.6666 26.25H4.58344ZM18.3334 26.25C17.7709 26.25 17.283 26.0434 16.8697 25.6303C16.4566 25.217 16.25 24.7291 16.25 24.1666V5.83344C16.25 5.27094 16.4566 4.78302 16.8697 4.36969C17.283 3.95656 17.7709 3.75 18.3334 3.75H25.4166C25.9791 3.75 26.467 3.95656 26.8803 4.36969C27.2934 4.78302 27.5 5.27094 27.5 5.83344V24.1666C27.5 24.7291 27.2934 25.217 26.8803 25.6303C26.467 26.0434 25.9791 26.25 25.4166 26.25H18.3334ZM4.58344 24.1666H11.6666V5.83344H4.58344V24.1666ZM18.3334 24.1666H25.4166V5.83344H18.3334V24.1666ZM6.25 18.6041H10V16.5209H6.25V18.6041ZM20 18.6041H23.75V16.5209H20V18.6041ZM6.25 14.7709H10V12.6875H6.25V14.7709ZM20 14.7709H23.75V12.6875H20V14.7709ZM6.25 10.9375H10V8.85406H6.25V10.9375ZM20 10.9375H23.75V8.85406H20V10.9375Z" fill="#FF8854"/>
</svg>
