<svg width="25" height="23" viewBox="0 0 25 23" fill="none" xmlns="http://www.w3.org/2000/svg">
<path d="M23.6066 19.9334L20.3024 16.5842L21.6958 15.1718L25 18.5211L23.6066 19.9334ZM19.3073 5.40712L17.9139 3.99474L21.2181 0.645514L22.6115 2.05789L19.3073 5.40712ZM5.69273 5.40712L2.38852 2.05789L3.78192 0.645514L7.08613 3.99474L5.69273 5.40712ZM1.3934 19.9334L0 18.5211L3.30421 15.1718L4.69761 16.5842L1.3934 19.9334ZM8.12095 18.7934L12.5 16.1303L16.879 18.8237L15.7146 13.7797L19.5661 10.3903L14.4905 9.9363L12.5 5.175L10.5095 9.90604L5.43387 10.36L9.28536 13.7598L8.12095 18.7934ZM5.12546 23L7.06613 14.4961L0.55742 8.77632L9.15608 8.01974L12.5 0L15.8439 8.01974L24.4426 8.77632L17.9339 14.4961L19.8745 23L12.5 18.4908L5.12546 23Z" fill="#FF8854"/>
</svg>
