<svg width="20" height="25" viewBox="0 0 20 25" fill="none" xmlns="http://www.w3.org/2000/svg">
<path d="M8.54156 16.4794H11.4584V13.3544H14.5834V10.4375H11.4584V7.3125H8.54156V10.4375H5.41656V13.3544H8.54156V16.4794ZM10 25C7.09021 24.2708 4.69615 22.5885 2.81781 19.9531C0.939271 17.3177 0 14.4167 0 11.25V3.75L10 0L20 3.75V11.25C20 14.4167 19.0607 17.3177 17.1822 19.9531C15.3039 22.5885 12.9098 24.2708 10 25ZM10 22.8334C12.3194 22.0766 14.2186 20.6217 15.6978 18.4688C17.177 16.316 17.9166 13.9098 17.9166 11.25V5.19812L10 2.21875L2.08344 5.19812V11.25C2.08344 13.9098 2.82302 16.316 4.30219 18.4688C5.78135 20.6217 7.68062 22.0766 10 22.8334Z" fill="#FF8854"/>
</svg>
