<svg width="25" height="25" viewBox="0 0 25 25" fill="none" xmlns="http://www.w3.org/2000/svg">
<path d="M21.25 7.91656C21.7223 7.91656 22.1181 7.75688 22.4375 7.4375C22.7569 7.11813 22.9166 6.72229 22.9166 6.25C22.9166 5.77771 22.7569 5.38188 22.4375 5.0625C22.1181 4.74313 21.7223 4.58344 21.25 4.58344C20.7777 4.58344 20.3819 4.74313 20.0625 5.0625C19.7431 5.38188 19.5834 5.77771 19.5834 6.25C19.5834 6.72229 19.7431 7.11813 20.0625 7.4375C20.3819 7.75688 20.7777 7.91656 21.25 7.91656ZM21.25 10C20.1875 10 19.2969 9.64063 18.5781 8.92188C17.8594 8.20313 17.5 7.3125 17.5 6.25C17.5 5.20833 17.8594 4.32292 18.5781 3.59375C19.2969 2.86458 20.1875 2.5 21.25 2.5C22.2917 2.5 23.1771 2.86458 23.9063 3.59375C24.6354 4.32292 25 5.20833 25 6.25C25 7.3125 24.6354 8.20313 23.9063 8.92188C23.1771 9.64063 22.2917 10 21.25 10ZM12.5031 6.66656C13.1329 6.66656 13.6718 6.44781 14.1197 6.01031C14.5676 5.57281 14.7916 5.02667 14.7916 4.37188C14.7916 3.74208 14.5688 3.20323 14.1231 2.75531C13.6777 2.3074 13.1367 2.08344 12.5 2.08344C11.8473 2.08344 11.3022 2.30625 10.8647 2.75188C10.4272 3.19729 10.2084 3.73833 10.2084 4.375C10.2084 5.02771 10.4272 5.57281 10.8647 6.01031C11.3022 6.44781 11.8483 6.66656 12.5031 6.66656ZM12.5 8.75C11.2708 8.75 10.2344 8.32813 9.39063 7.48438C8.54688 6.64063 8.125 5.60417 8.125 4.375C8.125 3.16667 8.54688 2.13542 9.39063 1.28125C10.2344 0.427083 11.2708 0 12.5 0C13.7083 0 14.7396 0.427083 15.5938 1.28125C16.4479 2.13542 16.875 3.16667 16.875 4.375C16.875 5.60417 16.4479 6.64063 15.5938 7.48438C14.7396 8.32813 13.7083 8.75 12.5 8.75ZM7.08344 14.2188C7.08344 14.9081 7.44802 15.7124 8.17719 16.6316C8.90636 17.5507 10.3473 18.986 12.5 20.9375C14.6215 19.0092 16.0546 17.5914 16.7994 16.6841C17.5442 15.7766 17.9166 14.9548 17.9166 14.2188C17.9166 13.6146 17.7203 13.1076 17.3278 12.6978C16.9351 12.2882 16.4508 12.0834 15.875 12.0834C15.5335 12.0834 15.2103 12.1668 14.9053 12.3334C14.6003 12.5001 14.3228 12.7049 14.0728 12.9478L12.6353 14.4166H12.3541L10.8959 12.9478C10.6459 12.7049 10.3699 12.5001 10.0678 12.3334C9.76573 12.1668 9.44917 12.0834 9.11813 12.0834C8.5325 12.0834 8.04698 12.2905 7.66156 12.7047C7.27615 13.1186 7.08344 13.6233 7.08344 14.2188ZM5 14.2188C5 13.1146 5.40281 12.1354 6.20844 11.2813C7.01386 10.4271 7.98604 10 9.125 10C9.75688 10 10.3723 10.1458 10.9713 10.4375C11.5702 10.7292 12.0798 11.125 12.5 11.625C12.9204 11.125 13.4248 10.7292 14.0131 10.4375C14.6017 10.1458 15.2223 10 15.875 10C17 10 17.9688 10.4289 18.7813 11.2866C19.5938 12.1441 20 13.1215 20 14.2188C20 15.3229 19.599 16.4115 18.7969 17.4844C17.9948 18.5573 16.3542 20.2292 13.875 22.5L12.5 23.75L11.125 22.5C8.60417 20.2083 6.95313 18.5313 6.17188 17.4688C5.39063 16.4063 5 15.3229 5 14.2188ZM3.75 7.91656C4.22229 7.91656 4.61813 7.75688 4.9375 7.4375C5.25688 7.11813 5.41656 6.72229 5.41656 6.25C5.41656 5.77771 5.25688 5.38188 4.9375 5.0625C4.61813 4.74313 4.22229 4.58344 3.75 4.58344C3.27771 4.58344 2.88188 4.74313 2.5625 5.0625C2.24313 5.38188 2.08344 5.77771 2.08344 6.25C2.08344 6.72229 2.24313 7.11813 2.5625 7.4375C2.88188 7.75688 3.27771 7.91656 3.75 7.91656ZM12.5938 25V22.9166H22.9166V13.3334H18.7291V11.25H22.9166C23.4895 11.25 23.98 11.454 24.3881 11.8619C24.796 12.27 25 12.7605 25 13.3334V25H12.5938ZM2.08344 22.9166H12.5938V25H0V13.3334C0 12.7605 0.199687 12.27 0.599063 11.8619C0.998229 11.454 1.49302 11.25 2.08344 11.25H6.25V13.3334H2.08344V22.9166ZM3.75 10C2.6875 10 1.79688 9.64063 1.07813 8.92188C0.359375 8.20313 0 7.3125 0 6.25C0 5.20833 0.359375 4.32292 1.07813 3.59375C1.79688 2.86458 2.6875 2.5 3.75 2.5C4.79167 2.5 5.67708 2.86458 6.40625 3.59375C7.13542 4.32292 7.5 5.20833 7.5 6.25C7.5 7.3125 7.13542 8.20313 6.40625 8.92188C5.67708 9.64063 4.79167 10 3.75 10Z" fill="#FF8854"/>
</svg>
