<svg width="30" height="30" viewBox="0 0 30 30" fill="none" xmlns="http://www.w3.org/2000/svg">
<path d="M11.1041 13.875L13.875 11.0938L11.7291 8.9375L10.2709 10.3959L8.8125 8.9375L10.2603 7.47906L8.22906 5.46875L5.44781 8.25L11.1041 13.875ZM21.7291 24.5522L24.5103 21.75L22.4791 19.7188L21.0209 21.1666L19.5625 19.7084L21.0103 18.25L18.875 16.125L16.1041 18.8959L21.7291 24.5522ZM8.77094 26.25H3.75V21.2291L9.61469 15.3647L2.5 8.25L8.20844 2.5L15.375 9.64594L20.6563 4.35406C20.8646 4.14573 21.0972 3.99302 21.3541 3.89594C21.6111 3.79865 21.8716 3.75 22.1353 3.75C22.3993 3.75 22.6597 3.79865 22.9166 3.89594C23.1736 3.99302 23.4064 4.14573 23.6147 4.35406L25.6459 6.39594C25.8543 6.60427 26.007 6.83688 26.1041 7.09375C26.2014 7.35063 26.25 7.61104 26.25 7.875C26.25 8.13896 26.2014 8.39761 26.1041 8.65094C26.007 8.90448 25.8543 9.13542 25.6459 9.34375L20.3647 14.6353L27.5 21.7709L21.7709 27.4791L14.6563 20.3647L8.77094 26.25ZM5.83344 24.1666H7.875L20.1459 11.8853L18.0938 9.83344L5.83344 22.125V24.1666ZM19.125 10.8647L18.0938 9.83344L20.1459 11.8853L19.125 10.8647Z" fill="#FF8854"/>
</svg>
