<svg width="27" height="26" viewBox="0 0 27 26" fill="none" xmlns="http://www.w3.org/2000/svg">
<path d="M18.875 13.4166L13.7291 8.39594C13.1066 7.80219 12.5795 7.14427 12.1478 6.42219C11.7159 5.6999 11.5 4.91333 11.5 4.0625C11.5 2.94438 11.8768 1.98781 12.6303 1.19281C13.3836 0.397604 14.3124 0 15.4166 0C16.1111 0 16.7501 0.168437 17.3334 0.505312C17.9168 0.841979 18.4306 1.27073 18.875 1.79156C19.3194 1.27073 19.8332 0.841979 20.4166 0.505312C20.9999 0.168437 21.6389 0 22.3334 0C23.4376 0 24.3664 0.397604 25.1197 1.19281C25.8732 1.98781 26.25 2.94438 26.25 4.0625C26.25 4.91208 26.0347 5.6974 25.6041 6.41844C25.1736 7.13948 24.6494 7.79865 24.0312 8.39594L18.875 13.4166ZM18.875 10.5209L22.5103 6.92719C22.9218 6.51948 23.3007 6.0849 23.6472 5.62344C23.9934 5.16219 24.1666 4.64188 24.1666 4.0625C24.1666 3.52083 23.993 3.05552 23.6459 2.66656C23.2986 2.27781 22.8611 2.08344 22.3334 2.08344C21.9584 2.08344 21.6095 2.17885 21.2866 2.36969C20.9636 2.56073 20.6806 2.80552 20.4375 3.10406L18.875 5L17.3125 3.10406C17.0694 2.80552 16.7864 2.56073 16.4634 2.36969C16.1405 2.17885 15.7916 2.08344 15.4166 2.08344C14.8889 2.08344 14.4514 2.27781 14.1041 2.66656C13.757 3.05552 13.5834 3.52083 13.5834 4.0625C13.5834 4.64188 13.7566 5.16219 14.1028 5.62344C14.4493 6.0849 14.8282 6.51948 15.2397 6.92719L18.875 10.5209ZM6.97906 21.0416L16.2709 23.7084L23.9166 21.3125C23.882 20.9723 23.7241 20.6858 23.4428 20.4531C23.1616 20.2204 22.8334 20.1041 22.4584 20.1041H16C15.5902 20.1041 15.2222 20.0798 14.8959 20.0312C14.5695 19.9827 14.243 19.9028 13.9166 19.7916L10.9478 18.8647L11.5728 16.7812L14.375 17.7291C14.6458 17.8195 14.9409 17.889 15.2603 17.9375C15.5799 17.986 15.9723 18.0139 16.4375 18.0209H17.6041C17.6041 17.6528 17.4843 17.3264 17.2447 17.0416C17.0051 16.757 16.7152 16.5486 16.375 16.4166L9.39594 13.7916H6.97906V21.0416ZM0 25V11.7084H9.375C9.49771 11.7084 9.62042 11.7205 9.74312 11.7447C9.86583 11.7691 9.98271 11.8021 10.0938 11.8438L17.0834 14.4584C17.8403 14.7361 18.474 15.1945 18.9844 15.8334C19.4948 16.4722 19.75 17.2014 19.75 18.0209H22.4584C23.5116 18.0209 24.4068 18.3924 25.1441 19.1353C25.8814 19.8784 26.25 20.7917 26.25 21.875V22.8334L16.3959 25.875L6.97906 23.2084V25H0ZM2.08344 22.9166H4.875V13.7916H2.08344V22.9166Z" fill="#FF8854"/>
</svg>
