<svg width="28" height="18" viewBox="0 0 28 18" fill="none" xmlns="http://www.w3.org/2000/svg">
<path d="M6.03906 17.5C5.05469 17.5 4.21875 17.1556 3.53125 16.4669C2.84375 15.7783 2.5 14.9422 2.5 13.9584H0V2.29156C0 1.66135 0.224375 1.12187 0.673125 0.673124C1.12188 0.224374 1.66135 0 2.29156 0H20.125L27.5 7.375V13.9584H25C25 14.9422 24.6554 15.7783 23.9662 16.4669C23.2771 17.1556 22.4403 17.5 21.4559 17.5C20.4714 17.5 19.6353 17.1556 18.9478 16.4669C18.2603 15.7783 17.9166 14.9422 17.9166 13.9584H9.58344C9.58344 14.9445 9.23885 15.7812 8.54969 16.4688C7.86052 17.1562 7.02365 17.5 6.03906 17.5ZM17.5 6.25H23.2084L19.0416 2.08344H17.5V6.25ZM9.79156 6.25H15.4166V2.08344H9.79156V6.25ZM2.08344 6.25H7.70844V2.08344H2.08344V6.25ZM6.03875 15.7291C6.53375 15.7291 6.95312 15.5582 7.29688 15.2166C7.64062 14.8747 7.8125 14.4563 7.8125 13.9613C7.8125 13.4663 7.64156 13.0469 7.29969 12.7031C6.95802 12.3594 6.53969 12.1875 6.04469 12.1875C5.54969 12.1875 5.13031 12.3584 4.78656 12.7003C4.44281 13.042 4.27094 13.4603 4.27094 13.9553C4.27094 14.4503 4.44177 14.8697 4.78344 15.2134C5.12531 15.5572 5.54375 15.7291 6.03875 15.7291ZM21.4553 15.7291C21.9503 15.7291 22.3697 15.5582 22.7134 15.2166C23.0572 14.8747 23.2291 14.4563 23.2291 13.9613C23.2291 13.4663 23.0582 13.0469 22.7166 12.7031C22.3747 12.3594 21.9563 12.1875 21.4613 12.1875C20.9662 12.1875 20.5469 12.3584 20.2031 12.7003C19.8594 13.042 19.6875 13.4603 19.6875 13.9553C19.6875 14.4503 19.8584 14.8697 20.2003 15.2134C20.542 15.5572 20.9603 15.7291 21.4553 15.7291ZM2.08344 11.875H3.1875C3.54167 11.389 3.97219 11.0244 4.47906 10.7812C4.98615 10.5381 5.50698 10.4166 6.04156 10.4166C6.57635 10.4166 7.09719 10.5381 7.60406 10.7812C8.11115 11.0244 8.54177 11.389 8.89594 11.875H18.6041C18.9582 11.389 19.3889 11.0244 19.8959 10.7812C20.4028 10.5381 20.9236 10.4166 21.4584 10.4166C21.993 10.4166 22.5139 10.5381 23.0209 10.7812C23.5278 11.0244 23.9583 11.389 24.3125 11.875H25.4166V8.33344H2.08344V11.875Z" fill="#FF8854"/>
</svg>
