<svg width="23" height="23" viewBox="0 0 23 23" fill="none" xmlns="http://www.w3.org/2000/svg">
<path d="M5.08344 17.5625H7.16656V11.2084H5.08344V17.5625ZM15.3334 17.5625H17.4166V4.64594H15.3334V17.5625ZM10.2084 17.5625H12.2916V13.8541H10.2084V17.5625ZM10.2084 11.2084H12.2916V9.125H10.2084V11.2084ZM2.08344 22.5C1.52094 22.5 1.03302 22.2934 0.619688 21.8803C0.206563 21.467 0 20.9791 0 20.4166V2.08344C0 1.52094 0.206563 1.03302 0.619688 0.619688C1.03302 0.206563 1.52094 0 2.08344 0H20.4166C20.9791 0 21.467 0.206563 21.8803 0.619688C22.2934 1.03302 22.5 1.52094 22.5 2.08344V20.4166C22.5 20.9791 22.2934 21.467 21.8803 21.8803C21.467 22.2934 20.9791 22.5 20.4166 22.5H2.08344ZM2.08344 20.4166H20.4166V2.08344H2.08344V20.4166Z" fill="#FF8854"/>
</svg>
