<svg width="20" height="17" viewBox="0 0 20 17" fill="none" xmlns="http://www.w3.org/2000/svg">
<path d="M5.38325 2.85V1.66675C5.38325 1.21675 5.54858 0.826417 5.87925 0.49575C6.20975 0.16525 6.6 0 7.05 0H12.9168C13.3668 0 13.757 0.16525 14.0875 0.49575C14.418 0.826417 14.5833 1.21675 14.5833 1.66675V2.85H15.8833C16.2166 2.85 16.5236 2.94025 16.8043 3.12075C17.0848 3.30142 17.2833 3.53342 17.4 3.81675L19.8168 9.48325C19.8778 9.61658 19.9236 9.7685 19.9543 9.939C19.9848 10.1093 20 10.2797 20 10.45V15.3333C20 15.7833 19.8348 16.1736 19.5043 16.5042C19.1736 16.8347 18.7833 17 18.3333 17H1.66675C1.21675 17 0.826417 16.8347 0.49575 16.5042C0.16525 16.1736 0 15.7833 0 15.3333V10.45C0 10.2797 0.01525 10.1093 0.04575 9.939C0.0764167 9.7685 0.12225 9.61658 0.18325 9.48325L2.56675 3.81675C2.68342 3.53342 2.882 3.30142 3.1625 3.12075C3.443 2.94025 3.74992 2.85 4.08325 2.85H5.38325ZM7.05 2.85H12.9168V1.66675H7.05V2.85ZM5.06675 9.18325V8.08325H6.73325V9.18325H13.2668V8.08325H14.9333V9.18325H17.85L15.9 4.51675H4.1L2.15 9.18325H5.06675ZM5.06675 10.85H1.66675V15.3333H18.3333V10.85H14.9333V11.95H13.2668V10.85H6.73325V11.95H5.06675V10.85Z" fill="#FF8854"/>
</svg>
