<svg width="28" height="20" viewBox="0 0 28 20" fill="none" xmlns="http://www.w3.org/2000/svg">
<path d="M0 20V15C0 14.361 0.223958 13.8194 0.671875 13.375C1.11979 12.9306 1.65969 12.7084 2.29156 12.7084H6.59375C6.96875 12.7084 7.32635 12.8022 7.66656 12.9897C8.00698 13.1772 8.29177 13.4341 8.52094 13.7603C9.1251 14.6145 9.88719 15.2777 10.8072 15.75C11.7274 16.2223 12.7083 16.4584 13.75 16.4584C14.7985 16.4584 15.7829 16.2223 16.7031 15.75C17.6233 15.2777 18.389 14.6145 19 13.7603C19.2431 13.4341 19.5296 13.1772 19.8594 12.9897C20.1892 12.8022 20.5381 12.7084 20.9062 12.7084H25.2084C25.8472 12.7084 26.3889 12.9306 26.8334 13.375C27.2778 13.8194 27.5 14.361 27.5 15V20H19.1666V16.5728C18.4236 17.2049 17.5886 17.691 16.6616 18.0312C15.7345 18.3715 14.764 18.5416 13.75 18.5416C12.7431 18.5416 11.7778 18.3697 10.8541 18.0259C9.93052 17.6822 9.09031 17.1944 8.33344 16.5625V20H0ZM13.75 14.7916C13 14.7916 12.2812 14.6163 11.5938 14.2656C10.9062 13.915 10.3438 13.4306 9.90625 12.8125C9.56604 12.3194 9.15115 11.9253 8.66156 11.6303C8.17198 11.3351 7.6424 11.1528 7.07281 11.0834C7.62844 10.4097 8.58333 9.88708 9.9375 9.51562C11.2917 9.14417 12.5625 8.95844 13.75 8.95844C14.9375 8.95844 16.2118 9.14417 17.5728 9.51562C18.9341 9.88708 19.8924 10.4097 20.4478 11.0834C19.8853 11.1528 19.3576 11.3351 18.8647 11.6303C18.3716 11.9253 17.9549 12.3194 17.6147 12.8125C17.1841 13.4375 16.625 13.9236 15.9375 14.2709C15.25 14.618 14.5208 14.7916 13.75 14.7916ZM3.75 10.8334C2.77771 10.8334 1.94438 10.4861 1.25 9.79156C0.555625 9.09719 0.208437 8.26385 0.208437 7.29156C0.208437 6.29865 0.555625 5.4601 1.25 4.77594C1.94438 4.09198 2.77771 3.75 3.75 3.75C4.74312 3.75 5.58167 4.09198 6.26562 4.77594C6.94958 5.4601 7.29156 6.29865 7.29156 7.29156C7.29156 8.26385 6.94958 9.09719 6.26562 9.79156C5.58167 10.4861 4.74312 10.8334 3.75 10.8334ZM23.75 10.8334C22.7777 10.8334 21.9444 10.4861 21.25 9.79156C20.5556 9.09719 20.2084 8.26385 20.2084 7.29156C20.2084 6.29865 20.5556 5.4601 21.25 4.77594C21.9444 4.09198 22.7777 3.75 23.75 3.75C24.7431 3.75 25.5817 4.09198 26.2656 4.77594C26.9496 5.4601 27.2916 6.29865 27.2916 7.29156C27.2916 8.26385 26.9496 9.09719 26.2656 9.79156C25.5817 10.4861 24.7431 10.8334 23.75 10.8334ZM13.75 7.08344C12.7777 7.08344 11.9444 6.73615 11.25 6.04156C10.5556 5.34719 10.2084 4.51385 10.2084 3.54156C10.2084 2.54865 10.5556 1.7101 11.25 1.02594C11.9444 0.34198 12.7777 0 13.75 0C14.7431 0 15.5817 0.34198 16.2656 1.02594C16.9496 1.7101 17.2916 2.54865 17.2916 3.54156C17.2916 4.51385 16.9496 5.34719 16.2656 6.04156C15.5817 6.73615 14.7431 7.08344 13.75 7.08344Z" fill="#FF8854"/>
</svg>
