<svg width="30" height="30" viewBox="0 0 30 30" fill="none" xmlns="http://www.w3.org/2000/svg">
<path d="M19.375 24.9897L14.2709 19.8853L15.75 18.4063L19.375 22.0313L26.7084 14.6978L28.1875 16.1772L19.375 24.9897ZM26.25 12.2291H24.1666V5.83344H22.0834V8.95844H7.91656V5.83344H5.83344V24.1666H13.5625V26.25H5.83344C5.24302 26.25 4.74823 26.0503 4.34906 25.6509C3.94969 25.2518 3.75 24.757 3.75 24.1666V5.83344C3.75 5.24302 3.94969 4.74823 4.34906 4.34906C4.74823 3.94969 5.24302 3.75 5.83344 3.75H11.7813C11.9548 3.02083 12.3436 2.42188 12.9478 1.95313C13.552 1.48438 14.236 1.25 15 1.25C15.7777 1.25 16.467 1.48438 17.0678 1.95313C17.6684 2.42188 18.0555 3.02083 18.2291 3.75H24.1666C24.757 3.75 25.2518 3.94969 25.6509 4.34906C26.0503 4.74823 26.25 5.24302 26.25 5.83344V12.2291ZM15 5.83344C15.3542 5.83344 15.651 5.71365 15.8906 5.47406C16.1302 5.23448 16.25 4.9376 16.25 4.58344C16.25 4.22927 16.1302 3.9324 15.8906 3.69281C15.651 3.45323 15.3542 3.33344 15 3.33344C14.6458 3.33344 14.349 3.45323 14.1094 3.69281C13.8698 3.9324 13.75 4.22927 13.75 4.58344C13.75 4.9376 13.8698 5.23448 14.1094 5.47406C14.349 5.71365 14.6458 5.83344 15 5.83344Z" fill="#FF8854"/>
</svg>
