<svg width="25" height="28" viewBox="0 0 25 28" fill="none" xmlns="http://www.w3.org/2000/svg">
<path d="M0 27.4791V25.3956H25V27.4791H0ZM2.5 23.7291V16.8541C1.72917 15.2151 1.17708 13.7932 0.84375 12.5884C0.510417 11.3836 0.34375 10.1667 0.34375 8.9375C0.34375 7.70833 0.498229 6.44438 0.807188 5.14563C1.11635 3.84708 1.52438 2.60406 2.03125 1.41656C2.22563 0.965105 2.4999 0.616146 2.85406 0.369688C3.20823 0.12323 3.60063 0 4.03125 0C4.62146 0 5.09021 0.194376 5.4375 0.583126C5.78479 0.972085 5.94448 1.51031 5.91656 2.19781L5.80219 5.875C5.76052 6.81938 5.90802 7.71167 6.24469 8.55188C6.58156 9.39229 7.05552 10.1267 7.66656 10.755C8.27781 11.3835 8.99656 11.8801 9.82281 12.2447C10.6493 12.6093 11.5417 12.7916 12.5 12.7916C14.0417 12.7916 15.4393 12.9183 16.6928 13.1719C17.9461 13.4252 19.0069 13.7915 19.875 14.2706C20.7431 14.7498 21.3976 15.3592 21.8384 16.0988C22.2795 16.8383 22.5 17.7221 22.5 18.75V23.7291H2.5ZM4.58344 21.6456H20.4166V18.75C20.4166 18.125 20.2639 17.5816 19.9584 17.1197C19.6528 16.6578 19.2014 16.2776 18.6041 15.9791C17.8749 15.618 16.9826 15.3438 15.9272 15.1563C14.8716 14.9688 13.7292 14.875 12.5 14.875C11.25 14.875 10.0781 14.6319 8.98438 14.1456C7.89063 13.6596 6.94615 13.0017 6.15094 12.1719C5.35594 11.3419 4.73615 10.3731 4.29156 9.26563C3.84719 8.15792 3.65281 6.98604 3.70844 5.75V3.04156C3.31948 3.8749 3.00865 4.82281 2.77594 5.88531C2.54344 6.94781 2.42719 7.96521 2.42719 8.9375C2.42719 10.0485 2.60594 11.1683 2.96344 12.2969C3.32115 13.4252 3.86115 14.7498 4.58344 16.2706V21.6456ZM12.5 11.2291C11.125 11.2291 9.94792 10.7395 8.96875 9.76031C7.98958 8.78115 7.5 7.60406 7.5 6.22906C7.5 4.85406 7.98958 3.67698 8.96875 2.69781C9.94792 1.71865 11.125 1.22906 12.5 1.22906C13.875 1.22906 15.0521 1.71865 16.0313 2.69781C17.0104 3.67698 17.5 4.85406 17.5 6.22906C17.5 7.60406 17.0104 8.78115 16.0313 9.76031C15.0521 10.7395 13.875 11.2291 12.5 11.2291ZM12.5 9.14563C13.3125 9.14563 14.0018 8.86271 14.5678 8.29688C15.1336 7.73083 15.4166 7.04156 15.4166 6.22906C15.4166 5.41656 15.1336 4.72729 14.5678 4.16125C14.0018 3.59542 13.3125 3.3125 12.5 3.3125C11.6875 3.3125 10.9982 3.59542 10.4322 4.16125C9.86635 4.72729 9.58344 5.41656 9.58344 6.22906C9.58344 7.04156 9.86635 7.73083 10.4322 8.29688C10.9982 8.86271 11.6875 9.14563 12.5 9.14563ZM7.70844 23.7291V22.5728C7.70844 21.2326 8.17198 20.0833 9.09906 19.125C10.0261 18.1667 11.1598 17.6875 12.5 17.6875H17.2916V19.7706H12.5C11.736 19.7706 11.0936 20.0467 10.5728 20.5988C10.052 21.1508 9.79156 21.8089 9.79156 22.5728V23.7291H7.70844Z" fill="#FF8854"/>
</svg>
