<svg width="19" height="19" viewBox="0 0 19 19" fill="none" xmlns="http://www.w3.org/2000/svg">
<path d="M1.16675 18.9833L0 17.8167L7.94175 9.86675L3.35 8.725L8.2 5.7L7.79175 0L12.1667 3.675L17.45 1.54175L15.3083 6.83325L19 11.2L13.2833 10.7832L10.2667 15.6333L9.125 11.0418L1.16675 18.9833ZM1.78325 5.58325L0 3.8L1.8 2L3.58325 3.78325L1.78325 5.58325ZM10.9417 11.4082L12.3917 9.05L15.1667 9.25825L13.3667 7.13325L14.4083 4.56675L11.8418 5.60825L9.71675 3.81675L9.925 6.58325L7.56675 8.05825L10.2667 8.725L10.9417 11.4082ZM15.2168 19L13.4333 17.2L15.2168 15.4168L17 17.2167L15.2168 19Z" fill="#FF8854"/>
</svg>
