<svg width="30" height="30" viewBox="0 0 30 30" fill="none" xmlns="http://www.w3.org/2000/svg">
<g clip-path="url(#clip0_1_834)">
<path d="M15 26.875C13.3542 26.875 11.8125 26.5625 10.375 25.9375C8.9375 25.3125 7.68229 24.4635 6.60938 23.3906C5.53646 22.3177 4.6875 21.0625 4.0625 19.625C3.4375 18.1875 3.125 16.6458 3.125 15C3.125 13.3542 3.4375 11.8125 4.0625 10.375C4.6875 8.9375 5.53646 7.68229 6.60938 6.60938C7.68229 5.53646 8.9375 4.6875 10.375 4.0625C11.8125 3.4375 13.3542 3.125 15 3.125V0L20 5L15 10V6.875C12.75 6.875 10.8333 7.66667 9.25 9.25C7.66667 10.8333 6.875 12.75 6.875 15C6.875 16.375 7.19271 17.651 7.82812 18.8281C8.46354 20.0052 9.3125 20.9583 10.375 21.6875C10.7083 21.1042 11.2031 20.6094 11.8594 20.2031C12.5156 19.7969 13.2708 19.5417 14.125 19.4375C14.0625 19 13.9792 18.5625 13.875 18.125C13.7708 17.6875 13.6458 17.2813 13.5 16.9063C13.2708 17.0938 13.0208 17.2396 12.75 17.3438C12.4792 17.4479 12.1875 17.5 11.875 17.5C11.1875 17.5 10.599 17.2552 10.1094 16.7656C9.61979 16.276 9.375 15.6875 9.375 15V13.75C9.375 13.3958 9.31771 13.0625 9.20312 12.75C9.08854 12.4375 8.9375 12.1458 8.75 11.875C9.79167 11.8542 10.7188 11.9479 11.5312 12.1563C12.2396 12.3438 12.8854 12.651 13.4688 13.0781C14.0521 13.5052 14.3542 14.1458 14.375 15C14.375 15.1875 14.3594 15.3594 14.3281 15.5156C14.2969 15.6719 14.2396 15.8333 14.1562 16C13.8854 15.7917 13.6146 15.6042 13.3438 15.4375C13.0729 15.2708 12.7917 15.125 12.5 15C12.8542 15.2708 13.2604 15.6875 13.7188 16.25C14.1771 16.8125 14.6042 17.4792 15 18.25C15.4167 17.2292 15.9375 16.224 16.5625 15.2344C17.1875 14.2448 17.9167 13.3333 18.75 12.5C18.2708 12.8333 17.8125 13.1875 17.375 13.5625C16.9375 13.9375 16.5104 14.3333 16.0938 14.75C15.9479 14.5208 15.8333 14.2656 15.75 13.9844C15.6667 13.7031 15.625 13.4167 15.625 13.125C15.625 12.25 15.9271 11.5104 16.5312 10.9063C17.1354 10.3021 17.875 10 18.75 10H20C20.4792 10 20.875 9.9375 21.1875 9.8125C21.5 9.6875 21.7604 9.54167 21.9688 9.375C22.1979 9.1875 22.375 8.97917 22.5 8.75C22.5833 10.1458 22.5104 11.3958 22.2812 12.5C22.0938 13.4375 21.7396 14.2969 21.2188 15.0781C20.6979 15.8594 19.875 16.25 18.75 16.25C18.4375 16.25 18.1406 16.2083 17.8594 16.125C17.5781 16.0417 17.3229 15.9271 17.0938 15.7813C16.9479 16.1771 16.7812 16.7031 16.5938 17.3594C16.4062 18.0156 16.2604 18.7188 16.1562 19.4688C16.9479 19.6146 17.6458 19.8854 18.25 20.2813C18.8542 20.6771 19.3125 21.1458 19.625 21.6875C20.6875 20.9583 21.5365 20.0104 22.1719 18.8438C22.8073 17.6771 23.125 16.3958 23.125 15H26.875C26.875 16.6458 26.5625 18.1875 25.9375 19.625C25.3125 21.0625 24.4635 22.3177 23.3906 23.3906C22.3177 24.4635 21.0625 25.3125 19.625 25.9375C18.1875 26.5625 16.6458 26.875 15 26.875Z" fill="#FF8854" stroke="white" stroke-width="0.2"/>
</g>
<defs>
<clipPath id="clip0_1_834">
<rect width="30" height="30" fill="white"/>
</clipPath>
</defs>
</svg>
