<svg width="20" height="25" viewBox="0 0 20 25" fill="none" xmlns="http://www.w3.org/2000/svg">
<path d="M10.0938 21.0834C10.3994 21.0764 10.6407 21.0051 10.8178 20.8697C10.9949 20.7343 11.0834 20.5485 11.0834 20.3125C11.0834 20.0625 10.9931 19.8664 10.8125 19.7241C10.6319 19.5816 10.3749 19.5139 10.0416 19.5209C9.17365 19.5418 8.27781 19.2796 7.35406 18.7344C6.43052 18.1892 5.84375 17.2186 5.59375 15.8228C5.55208 15.6216 5.45312 15.4584 5.29688 15.3334C5.14062 15.2084 4.96875 15.1459 4.78125 15.1459C4.53125 15.1459 4.33333 15.2414 4.1875 15.4322C4.04167 15.6232 3.99302 15.8299 4.04156 16.0522C4.36802 17.8507 5.13885 19.1458 6.35406 19.9375C7.56948 20.7292 8.81604 21.1111 10.0938 21.0834ZM10 25C7.14583 25 4.76562 24.0208 2.85938 22.0625C0.953125 20.1042 0 17.6667 0 14.75C0 12.6667 0.828125 10.401 2.48438 7.95313C4.14062 5.50521 6.64583 2.85417 10 0C13.3542 2.85417 15.8594 5.50521 17.5156 7.95313C19.1719 10.401 20 12.6667 20 14.75C20 17.6667 19.0469 20.1042 17.1406 22.0625C15.2344 24.0208 12.8542 25 10 25ZM10 22.9166C12.2777 22.9166 14.1666 22.1405 15.6666 20.5884C17.1666 19.0364 17.9166 17.0902 17.9166 14.75C17.9166 13.1458 17.2447 11.3264 15.9009 9.29156C14.5572 7.25698 12.5902 5.08344 10 2.77094C7.40979 5.08344 5.44281 7.25698 4.09906 9.29156C2.75531 11.3264 2.08344 13.1458 2.08344 14.75C2.08344 17.0902 2.83344 19.0364 4.33344 20.5884C5.83344 22.1405 7.72229 22.9166 10 22.9166Z" fill="#FF8854"/>
</svg>
